<svg width="18" height="18" viewBox="0 0 18 18" fill="none" xmlns="http://www.w3.org/2000/svg">
<path d="M4.83332 4.16659V1.66659C4.83332 1.44557 4.92112 1.23361 5.0774 1.07733C5.23368 0.921049 5.44564 0.833252 5.66666 0.833252H12.3333C12.5543 0.833252 12.7663 0.921049 12.9226 1.07733C13.0789 1.23361 13.1667 1.44557 13.1667 1.66659V4.16659H16.5C16.721 4.16659 16.933 4.25438 17.0892 4.41066C17.2455 4.56694 17.3333 4.7789 17.3333 4.99992V16.6666C17.3333 16.8876 17.2455 17.0996 17.0892 17.2558C16.933 17.4121 16.721 17.4999 16.5 17.4999H1.49999C1.27898 17.4999 1.06701 17.4121 0.910734 17.2558C0.754454 17.0996 0.666656 16.8876 0.666656 16.6666V4.99992C0.666656 4.7789 0.754454 4.56694 0.910734 4.41066C1.06701 4.25438 1.27898 4.16659 1.49999 4.16659H4.83332ZM2.33332 12.4999V15.8333H15.6667V12.4999H2.33332ZM8.16666 9.16658V10.8333H9.83332V9.16658H8.16666ZM6.49999 2.49992V4.16659H11.5V2.49992H6.49999Z" fill="#545453"/>
</svg>
