<svg width="18" height="16" viewBox="0 0 18 16" fill="none" xmlns="http://www.w3.org/2000/svg">
<path d="M0.666656 1.3275C0.668182 1.10865 0.75574 0.899181 0.910417 0.744348C1.06509 0.589515 1.27447 0.501746 1.49332 0.5H16.5067C16.9633 0.5 17.3333 0.870833 17.3333 1.3275V14.6725C17.3318 14.8914 17.2442 15.1008 17.0896 15.2557C16.9349 15.4105 16.7255 15.4983 16.5067 15.5H1.49332C1.274 15.4998 1.06374 15.4125 0.908731 15.2573C0.753725 15.1022 0.666656 14.8918 0.666656 14.6725V1.3275ZM3.99999 10.5V12.1667H14V10.5H3.99999ZM3.99999 3.83333V8.83333H8.99999V3.83333H3.99999ZM10.6667 3.83333V5.5H14V3.83333H10.6667ZM10.6667 7.16667V8.83333H14V7.16667H10.6667ZM5.66666 5.5H7.33332V7.16667H5.66666V5.5Z" fill="#545453"/>
</svg>
