<svg width="18" height="18" viewBox="0 0 18 18" fill="none" xmlns="http://www.w3.org/2000/svg">
<path d="M7.33332 15.4567V12.6667C7.33332 11.5976 8.16249 10.7567 9.38916 10.2767C8.59807 9.98254 7.76068 9.83239 6.91666 9.83342C5.34166 9.83342 3.88666 10.3476 2.71082 11.2167C3.07541 12.2479 3.68756 13.1737 4.49353 13.913C5.2995 14.6522 6.27464 15.1824 7.33332 15.4567ZM14.7333 12.4051C14.4042 11.9609 13.3083 11.5001 11.9167 11.5001C10.245 11.5001 8.99999 12.1642 8.99999 12.6667V15.6667C10.1565 15.6674 11.2933 15.367 12.2986 14.7951C13.3038 14.2232 14.1429 13.3996 14.7333 12.4051ZM6.95832 8.58342C7.4556 8.58342 7.93252 8.38587 8.28415 8.03424C8.63578 7.68261 8.83332 7.2057 8.83332 6.70842C8.83332 6.21113 8.63578 5.73422 8.28415 5.38259C7.93252 5.03096 7.4556 4.83342 6.95832 4.83342C6.46104 4.83342 5.98413 5.03096 5.6325 5.38259C5.28087 5.73422 5.08332 6.21113 5.08332 6.70842C5.08332 7.2057 5.28087 7.68261 5.6325 8.03424C5.98413 8.38587 6.46104 8.58342 6.95832 8.58342ZM11.9167 9.41675C12.3587 9.41675 12.7826 9.24115 13.0952 8.92859C13.4077 8.61603 13.5833 8.19211 13.5833 7.75008C13.5833 7.30805 13.4077 6.88413 13.0952 6.57157C12.7826 6.25901 12.3587 6.08342 11.9167 6.08342C11.4746 6.08342 11.0507 6.25901 10.7381 6.57157C10.4256 6.88413 10.25 7.30805 10.25 7.75008C10.25 8.19211 10.4256 8.61603 10.7381 8.92859C11.0507 9.24115 11.4746 9.41675 11.9167 9.41675ZM8.99999 17.3334C4.39749 17.3334 0.666656 13.6026 0.666656 9.00008C0.666656 4.39758 4.39749 0.666748 8.99999 0.666748C13.6025 0.666748 17.3333 4.39758 17.3333 9.00008C17.3333 13.6026 13.6025 17.3334 8.99999 17.3334Z" fill="#545453"/>
</svg>
