<svg width="19" height="16" viewBox="0 0 19 16" fill="none" xmlns="http://www.w3.org/2000/svg">
<path d="M17.3333 3H11.5C10.1739 3 8.90214 3.52678 7.96446 4.46447C7.02677 5.40215 6.49999 6.67392 6.49999 8C6.49999 9.32608 7.02677 10.5979 7.96446 11.5355C8.90214 12.4732 10.1739 13 11.5 13H17.3333V14.6667C17.3333 14.8877 17.2455 15.0996 17.0892 15.2559C16.933 15.4122 16.721 15.5 16.5 15.5H1.49999C1.27898 15.5 1.06701 15.4122 0.910734 15.2559C0.754454 15.0996 0.666656 14.8877 0.666656 14.6667V1.33333C0.666656 1.11232 0.754454 0.900358 0.910734 0.744078C1.06701 0.587797 1.27898 0.5 1.49999 0.5H16.5C16.721 0.5 16.933 0.587797 17.0892 0.744078C17.2455 0.900358 17.3333 1.11232 17.3333 1.33333V3ZM11.5 4.66667H18.1667V11.3333H11.5C10.6159 11.3333 9.76809 10.9821 9.14297 10.357C8.51785 9.7319 8.16666 8.88406 8.16666 8C8.16666 7.11594 8.51785 6.2681 9.14297 5.64298C9.76809 5.01786 10.6159 4.66667 11.5 4.66667ZM11.5 7.16667V8.83333H14V7.16667H11.5Z" fill="#545453"/>
</svg>
