<svg width="20" height="20" viewBox="0 0 20 20" fill="none" xmlns="http://www.w3.org/2000/svg">
<path d="M10 0.833252C15.0628 0.833252 19.1667 4.93717 19.1667 9.99992C19.1667 15.0627 15.0628 19.1666 10 19.1666C4.93726 19.1666 0.833344 15.0627 0.833344 9.99992C0.833344 4.93717 4.93726 0.833252 10 0.833252ZM14.213 5.78692C14.026 5.599 13.7308 5.57334 13.5136 5.7255C10.8644 7.5845 9.37026 8.68634 9.02743 9.02734C8.49118 9.5645 8.49118 10.4353 9.02743 10.9725C9.56459 11.5088 10.4354 11.5088 10.9726 10.9725C11.1733 10.7708 12.2724 9.27575 14.2708 6.48358C14.4248 6.26908 14.4 5.97392 14.213 5.78692ZM15.0417 9.08325C14.5357 9.08325 14.125 9.49392 14.125 9.99992C14.125 10.5059 14.5357 10.9166 15.0417 10.9166C15.5477 10.9166 15.9583 10.5059 15.9583 9.99992C15.9583 9.49392 15.5477 9.08325 15.0417 9.08325ZM4.95834 9.08325C4.45234 9.08325 4.04168 9.49392 4.04168 9.99992C4.04168 10.5059 4.45234 10.9166 4.95834 10.9166C5.46434 10.9166 5.87501 10.5059 5.87501 9.99992C5.87501 9.49392 5.46434 9.08325 4.95834 9.08325ZM7.08318 5.78692C6.72568 5.42942 6.14451 5.42942 5.78701 5.78692C5.42951 6.14442 5.42951 6.72467 5.78701 7.08309C6.14451 7.44058 6.72476 7.44058 7.08318 7.08309C7.44068 6.72558 7.44068 6.14442 7.08318 5.78692ZM10 4.04159C9.49401 4.04159 9.08334 4.45225 9.08334 4.95825C9.08334 5.46425 9.49401 5.87492 10 5.87492C10.506 5.87492 10.9167 5.46425 10.9167 4.95825C10.9167 4.45225 10.506 4.04159 10 4.04159Z" fill="#545453"/>
</svg>
