<svg width="16" height="18" viewBox="0 0 16 18" fill="none" xmlns="http://www.w3.org/2000/svg">
<path d="M7.16667 0.666748V4.83342H4.66667L8 8.16675L11.3333 4.83342H8.83333V0.666748H14.6667C14.8877 0.666748 15.0996 0.754545 15.2559 0.910826C15.4122 1.06711 15.5 1.27907 15.5 1.50008V16.5001C15.5 16.7211 15.4122 16.9331 15.2559 17.0893C15.0996 17.2456 14.8877 17.3334 14.6667 17.3334H1.33333C1.11232 17.3334 0.900358 17.2456 0.744078 17.0893C0.587797 16.9331 0.5 16.7211 0.5 16.5001V1.50008C0.5 1.27907 0.587797 1.06711 0.744078 0.910826C0.900358 0.754545 1.11232 0.666748 1.33333 0.666748H7.16667ZM13.8333 12.3334H2.16667V15.6667H13.8333V12.3334ZM12.1667 13.1667V14.8334H10.5V13.1667H12.1667Z" fill="#545453"/>
</svg>
